<?xml version="1.0" encoding="utf-8"?>
<!-- Generator: Adobe Illustrator 27.5.0, SVG Export Plug-In . SVG Version: 6.00 Build 0)  -->
<svg version="1.1" id="Layer_1" xmlns="http://www.w3.org/2000/svg" xmlns:xlink="http://www.w3.org/1999/xlink" x="0px" y="0px"
	 viewBox="0 0 439.7 71.5" style="enable-background:new 0 0 439.7 71.5;" xml:space="preserve">
<style type="text/css">
	.st0{fill:#827AF0;}
	.st1{fill-rule:evenodd;clip-rule:evenodd;fill:#827AF0;}
</style>
<g id="AB_-_No_Tagline_-_Triton">
	<g>
		<g>
			<path class="st0" d="M379.7,31.4c2.4-1.6,3.6-4,3.6-7.1s-1.1-5.7-3.3-7.5c-2.2-1.9-5.3-2.8-9.2-2.8c-5.1,0-9,1.5-11.9,4.7
				c-2.9,3.1-4.3,7.4-4.3,12.8c0,5.4,1.4,9.4,4.2,12.3c2.8,2.8,6.8,4.3,12,4.3c3.4,0,6.7-0.6,9.8-1.8c0.5-0.2,0.9-0.4,1.1-0.7
				c0.2-0.3,0.3-0.7,0.3-1.4v-2.9c0-1-0.4-1.4-1.1-1.4c-0.1,0-0.2,0-0.3,0c-0.1,0-0.2,0.1-0.4,0.1c-2,0.5-3.5,0.8-4.6,1
				c-1.1,0.2-2.3,0.2-3.4,0.2c-2.9,0-5.1-0.6-6.6-1.8c-1.5-1.2-2.3-3.2-2.5-6c1.8,0.5,3.8,0.7,6.2,0.7
				C373.8,33.8,377.3,33,379.7,31.4L379.7,31.4z M363.1,27.6c0.6-5,3-7.4,7-7.4c3.1,0,4.7,1.3,4.7,4c0,1.3-0.5,2.3-1.5,3
				s-2.5,1-4.7,1S364.8,28,363.1,27.6L363.1,27.6z"/>
			<path class="st0" d="M268.9,14.8h-6c-0.5,0-0.9,0.1-1.2,0.3c-0.2,0.2-0.4,0.6-0.4,1.2v22.5c-2.1,1.3-4.2,2-6.4,2
				c-2.9,0-4.4-1.7-4.4-5.1V16.4c0-0.6-0.1-1-0.3-1.2s-0.6-0.3-1.2-0.3h-6c-0.5,0-0.9,0.1-1.2,0.3c-0.2,0.2-0.4,0.6-0.4,1.2v22
				c0,3,0.8,5.3,2.4,7c1.6,1.7,3.8,2.6,6.6,2.6c4,0,7.9-1.4,11.6-4.3l0.6,2c0.1,0.5,0.3,0.9,0.6,1.1s0.6,0.3,1.1,0.3h4.5
				c0.6,0,1-0.1,1.2-0.4s0.3-0.7,0.3-1.2v-29c0-0.6-0.1-1-0.3-1.2S269.5,14.8,268.9,14.8L268.9,14.8z"/>
			<path class="st0" d="M223,13.9c-1.6,0-3.2,0.3-4.8,0.9s-3,1.4-4.2,2.5V2c0-0.6-0.1-1-0.3-1.2s-0.6-0.4-1.2-0.4h-6
				c-0.5,0-0.9,0.1-1.2,0.4C205,1,204.8,1.4,204.8,2v43.5c0,0.6,0.1,0.9,0.4,1.2s0.6,0.4,1.2,0.4h4.6c1,0,1.5-0.5,1.8-1.4l0.4-1.8
				c1.1,1.2,2.5,2.2,4.2,2.8c1.7,0.7,3.5,1,5.4,1c2.6,0,4.9-0.7,6.9-2.1s3.6-3.4,4.7-6c1.2-2.6,1.8-5.7,1.8-9.1
				c0-5.1-1.2-9.1-3.5-12.1C230.2,15.4,227,13.9,223,13.9L223,13.9z M225.2,38.4c-1.1,1.6-2.8,2.4-5.1,2.4s-4.3-0.6-6.1-1.7V22.5
				c1.9-1.1,4-1.7,6.1-1.7c2.4,0,4.1,0.8,5.2,2.4c1.1,1.6,1.6,4.1,1.6,7.6S226.3,36.8,225.2,38.4L225.2,38.4z"/>
			<path class="st0" d="M292.9,28.5l-4.7-2c-1.5-0.6-2.5-1.2-3-1.6c-0.5-0.4-0.7-1-0.7-1.7c0-0.9,0.4-1.6,1.2-2
				c0.8-0.4,2-0.6,3.7-0.6c2.3,0,4.3,0.2,6,0.8c0.9,0.2,1.5,0.4,1.8,0.4c0.7,0,1.1-0.5,1.1-1.5v-2.8c0-0.7-0.1-1.1-0.3-1.4
				c-0.2-0.3-0.5-0.5-1.1-0.7c-2.6-1-5.3-1.5-8.3-1.5c-3.8,0-6.8,0.9-9.1,2.6c-2.3,1.7-3.4,4-3.4,6.9c0,2.3,0.6,4.1,1.7,5.6
				s3,2.7,5.5,3.7l4.9,1.9c1.5,0.6,2.4,1.1,2.9,1.5c0.5,0.5,0.7,1.1,0.7,1.9c0,2.1-1.5,3.2-4.5,3.2c-1.5,0-3.1-0.1-4.8-0.4
				s-3.2-0.6-4.6-1.1c-0.4-0.1-0.7-0.2-0.9-0.2c-0.7,0-1.1,0.5-1.1,1.4v2.8c0,0.6,0.1,1.1,0.2,1.3s0.5,0.5,1.1,0.8
				c3,1.3,6.3,1.9,10,1.9s6.9-1,9.3-2.9s3.5-4.4,3.5-7.5c0-2.2-0.5-4-1.6-5.4C297.3,30.8,295.4,29.6,292.9,28.5L292.9,28.5z"/>
			<path class="st0" d="M432.6,28.5l-4.7-2c-1.5-0.6-2.5-1.2-3-1.6c-0.5-0.4-0.7-1-0.7-1.7c0-0.9,0.4-1.6,1.2-2
				c0.8-0.4,2-0.6,3.7-0.6c2.3,0,4.3,0.2,6,0.8c0.9,0.2,1.5,0.4,1.8,0.4c0.7,0,1.1-0.5,1.1-1.5v-2.8c0-0.7-0.1-1.1-0.3-1.4
				c-0.2-0.3-0.5-0.5-1.1-0.7c-2.6-1-5.3-1.5-8.3-1.5c-3.8,0-6.8,0.9-9.1,2.6c-2.3,1.7-3.4,4-3.4,6.9c0,2.3,0.6,4.1,1.7,5.6
				s3,2.7,5.5,3.7l4.9,1.9c1.5,0.6,2.4,1.1,2.9,1.5c0.5,0.5,0.7,1.1,0.7,1.9c0,2.1-1.5,3.2-4.5,3.2c-1.5,0-3.1-0.1-4.8-0.4
				s-3.2-0.6-4.6-1.1c-0.4-0.1-0.7-0.2-0.9-0.2c-0.7,0-1.1,0.5-1.1,1.4v2.8c0,0.6,0.1,1.1,0.2,1.3s0.5,0.5,1.1,0.8
				c3,1.3,6.3,1.9,10,1.9s6.9-1,9.3-2.9s3.5-4.4,3.5-7.5c0-2.2-0.5-4-1.6-5.4C437,30.8,435.1,29.6,432.6,28.5L432.6,28.5z"/>
			<path class="st0" d="M404.4,28.5l-4.7-2c-1.5-0.6-2.5-1.2-3-1.6c-0.5-0.4-0.7-1-0.7-1.7c0-0.9,0.4-1.6,1.2-2
				c0.8-0.4,2-0.6,3.7-0.6c2.3,0,4.3,0.2,6,0.8c0.9,0.2,1.5,0.4,1.8,0.4c0.7,0,1.1-0.5,1.1-1.5v-2.8c0-0.7-0.1-1.1-0.3-1.4
				c-0.2-0.3-0.5-0.5-1.1-0.7c-2.6-1-5.3-1.5-8.3-1.5c-3.8,0-6.8,0.9-9.1,2.6c-2.3,1.7-3.4,4-3.4,6.9c0,2.3,0.6,4.1,1.7,5.6
				s3,2.7,5.5,3.7l4.9,1.9c1.5,0.6,2.4,1.1,2.9,1.5c0.5,0.5,0.7,1.1,0.7,1.9c0,2.1-1.5,3.2-4.5,3.2c-1.5,0-3.1-0.1-4.8-0.4
				s-3.2-0.6-4.6-1.1c-0.4-0.1-0.7-0.2-0.9-0.2c-0.7,0-1.1,0.5-1.1,1.4v2.8c0,0.6,0.1,1.1,0.2,1.3s0.5,0.5,1.1,0.8
				c3,1.3,6.3,1.9,10,1.9s6.9-1,9.3-2.9s3.5-4.4,3.5-7.5c0-2.2-0.5-4-1.6-5.4C408.8,30.8,407,29.6,404.4,28.5L404.4,28.5z"/>
			<path class="st0" d="M340.7,13.9c-4.2,0-8.2,1.5-12,4.4l-0.6-2.1c-0.2-0.9-0.8-1.4-1.8-1.4h-4.5c-0.5,0-0.9,0.1-1.2,0.3
				c-0.2,0.2-0.4,0.6-0.4,1.2v29c0,0.6,0.1,0.9,0.4,1.2s0.6,0.4,1.2,0.4h6c0.6,0,1-0.1,1.2-0.4s0.3-0.7,0.3-1.2V23.1
				c2.2-1.4,4.5-2.1,6.8-2.1c1.5,0,2.7,0.4,3.4,1.2s1.1,2.1,1.1,3.8v19.5c0,0.6,0.1,0.9,0.4,1.2s0.6,0.4,1.2,0.4h6
				c0.6,0,1-0.1,1.2-0.4s0.3-0.7,0.3-1.2V23.2c0-3-0.8-5.3-2.4-6.9C345.9,14.7,343.6,13.9,340.7,13.9L340.7,13.9z"/>
			<path class="st0" d="M312.4,14.8h-6c-0.5,0-0.9,0.1-1.2,0.3c-0.2,0.2-0.4,0.6-0.4,1.2v29c0,0.6,0.1,0.9,0.4,1.2s0.6,0.4,1.2,0.4
				h6c0.6,0,1-0.1,1.2-0.4s0.3-0.7,0.3-1.2v-29c0-0.6-0.1-1-0.3-1.2S312.9,14.8,312.4,14.8z"/>
			<path class="st0" d="M309.4,0c-1.6,0-2.9,0.4-3.8,1.3c-1,0.9-1.4,2.1-1.4,3.6s0.5,2.7,1.4,3.6c1,0.9,2.2,1.3,3.8,1.3
				s2.9-0.4,3.8-1.3c1-0.9,1.4-2.1,1.4-3.6s-0.5-2.7-1.4-3.6C312.2,0.4,310.9,0,309.4,0z"/>
		</g>
		<g>
			<g>
				<path class="st1" d="M119,58.9c-11.1,8.2-27.3,12.6-41.2,12.6c-19.5,0-37.1-7.2-50.3-19.2c-1-0.9-0.1-2.2,1.1-1.5
					C42.9,59.1,60.7,64.2,79,64.2c12.4,0,25.9-2.6,38.4-7.9C119.3,55.5,120.9,57.5,119,58.9z"/>
				<path class="st1" d="M123.7,53.6c-1.4-1.8-9.4-0.9-13-0.4c-1.1,0.1-1.3-0.8-0.3-1.5c6.4-4.5,16.8-3.2,18-1.7
					c1.2,1.5-0.3,12-6.3,17c-0.9,0.8-1.8,0.4-1.4-0.7C122.1,62.9,125.1,55.4,123.7,53.6L123.7,53.6z"/>
			</g>
			<g>
				<path class="st1" d="M110.9,20v-4.3c0-0.7,0.5-1.1,1.1-1.1h19.5c0.6,0,1.1,0.5,1.1,1.1v3.7c0,0.6-0.5,1.4-1.5,2.7l-10.1,14.4
					c3.8-0.1,7.7,0.5,11.1,2.4c0.8,0.4,1,1.1,1,1.7v4.7c0,0.6-0.7,1.4-1.4,1c-6-3.2-14-3.5-20.6,0c-0.7,0.4-1.4-0.4-1.4-1v-4.4
					c0-0.7,0-1.9,0.7-3l11.7-16.8H112C111.4,21.1,110.9,20.6,110.9,20L110.9,20z"/>
				<path class="st1" d="M39.7,47.2h-5.9c-0.6,0-1-0.5-1.1-1V15.7c0-0.6,0.5-1.1,1.2-1.1h5.5c0.6,0,1,0.5,1.1,1v4h0.1
					c1.4-3.8,4.2-5.6,7.8-5.6s6,1.8,7.7,5.6c1.4-3.8,4.7-5.6,8.2-5.6c2.5,0,5.2,1,6.9,3.3c1.9,2.6,1.5,6.3,1.5,9.5v19.2
					c0,0.6-0.5,1.1-1.2,1.1h-5.9c-0.6,0-1.1-0.5-1.1-1.1V29.9c0-1.3,0.1-4.5-0.2-5.7c-0.4-2-1.8-2.6-3.5-2.6c-1.4,0-2.9,1-3.6,2.5
					s-0.6,4.1-0.6,5.8v16.1c0,0.6-0.5,1.1-1.1,1.1h-5.9c-0.6,0-1.1-0.5-1.1-1.1V29.9c0-3.4,0.6-8.4-3.7-8.4s-4.1,4.9-4.1,8.4v16.1
					C40.8,46.7,40.3,47.2,39.7,47.2z"/>
				<path class="st1" d="M149.4,14c8.8,0,13.6,7.6,13.6,17.2s-5.3,16.7-13.6,16.7s-13.4-7.6-13.4-17S140.9,14,149.4,14z M149.5,20.2
					c-4.4,0-4.6,6-4.6,9.7s-0.1,11.7,4.6,11.7s4.8-6.4,4.8-10.3c0-2.6-0.1-5.6-0.9-8.1C152.7,21,151.4,20.2,149.5,20.2L149.5,20.2z"
					/>
				<path class="st1" d="M174.4,47.2h-5.9c-0.6,0-1.1-0.5-1.1-1.1V15.6c0-0.6,0.5-1,1.1-1h5.5c0.5,0,0.9,0.4,1.1,0.8v4.7h0.1
					c1.7-4.2,4-6.2,8.1-6.2c2.7,0,5.3,1,6.9,3.6c1.6,2.4,1.6,6.5,1.6,9.5v19.2c-0.1,0.5-0.6,1-1.1,1h-5.9c-0.6,0-1-0.4-1.1-1V29.7
					c0-3.3,0.4-8.2-3.7-8.2c-1.4,0-2.8,1-3.4,2.4c-0.8,1.9-0.9,3.7-0.9,5.8v16.4C175.6,46.7,175.1,47.2,174.4,47.2L174.4,47.2z"/>
				<path class="st1" d="M95.3,32.6c0,2.3,0.1,4.2-1.1,6.3c-0.9,1.7-2.4,2.7-4.1,2.7c-2.3,0-3.6-1.7-3.6-4.3c0-5.1,4.5-6,8.8-6V32.6
					L95.3,32.6z M101.3,47.1c-0.4,0.3-1,0.4-1.4,0.1c-2-1.6-2.3-2.4-3.4-4c-3.3,3.3-5.6,4.3-9.8,4.3c-5,0-8.9-3.1-8.9-9.2
					c0-4.8,2.6-8.1,6.3-9.7c3.2-1.4,7.7-1.7,11.2-2.1v-0.8c0-1.4,0.1-3.1-0.7-4.3c-0.7-1.1-2.1-1.5-3.3-1.5c-2.3,0-4.3,1.2-4.8,3.6
					c-0.1,0.5-0.5,1.1-1,1.1L79.7,24c-0.5-0.1-1-0.5-0.9-1.2c1.3-7,7.6-9.1,13.3-9.1c2.9,0,6.7,0.8,8.9,3c2.9,2.7,2.6,6.3,2.6,10.2
					v9.2c0,2.8,1.2,4,2.2,5.5c0.4,0.5,0.5,1.2,0,1.6C104.7,44.2,102.5,46.1,101.3,47.1L101.3,47.1L101.3,47.1z"/>
				<path class="st1" d="M17.5,32.6c0,2.3,0.1,4.2-1.1,6.3c-0.9,1.7-2.4,2.7-4.1,2.7c-2.3,0-3.6-1.7-3.6-4.3c0-5.1,4.5-6,8.8-6
					L17.5,32.6L17.5,32.6z M23.5,47.1c-0.4,0.3-1,0.4-1.4,0.1c-2-1.6-2.3-2.4-3.4-4c-3.3,3.3-5.6,4.3-9.8,4.3c-5,0-8.9-3.1-8.9-9.2
					c0-4.8,2.6-8.1,6.3-9.7c3.2-1.4,7.7-1.7,11.2-2.1v-0.8c0-1.4,0.1-3.1-0.7-4.3C16,20.4,14.7,20,13.4,20c-2.3,0-4.3,1.2-4.8,3.6
					c-0.1,0.5-0.5,1.1-1,1.1L1.9,24c-0.5-0.1-1-0.5-0.9-1.2c1.3-7,7.6-9.1,13.3-9.1c2.9,0,6.7,0.8,8.9,3c2.9,2.7,2.6,6.3,2.6,10.2
					v9.2c0,2.8,1.2,4,2.2,5.5c0.4,0.5,0.5,1.2,0,1.6C26.8,44.2,24.7,46.1,23.5,47.1L23.5,47.1L23.5,47.1z"/>
			</g>
		</g>
	</g>
</g>
</svg>
